<mxfile host="app.diagrams.net" modified="2024-05-18T21:02:03.591Z" agent="Mozilla/5.0 (Windows NT 10.0; Win64; x64) AppleWebKit/537.36 (KHTML, like Gecko) Chrome/124.0.0.0 Safari/537.36" etag="lnbTd7wmvqJi_ZVzxN1N" version="24.4.0" type="google">
  <diagram name="Page-1" id="Z09VXrgG8U_vuG9RcVed">
    <mxGraphModel dx="11851" dy="10330" grid="1" gridSize="10" guides="1" tooltips="1" connect="1" arrows="1" fold="1" page="1" pageScale="1" pageWidth="4681" pageHeight="3300" math="0" shadow="0">
      <root>
        <mxCell id="0" />
        <mxCell id="1" parent="0" />
        <mxCell id="Lpcm2hX8-Bi3e6Y-f05t-5" value="BOOKING" style="rounded=0;whiteSpace=wrap;html=1;fontSize=16;shadow=0;" parent="1" vertex="1">
          <mxGeometry x="-2892.5" y="-4234.17" width="120" height="40" as="geometry" />
        </mxCell>
        <mxCell id="Lpcm2hX8-Bi3e6Y-f05t-6" value="VEHICLE" style="rounded=0;whiteSpace=wrap;html=1;fontSize=16;shadow=0;" parent="1" vertex="1">
          <mxGeometry x="-1979" y="-4247.17" width="120" height="40" as="geometry" />
        </mxCell>
        <mxCell id="g4j1WKEGXEMlScfUfIoM-2" value="Schedule_ID" style="ellipse;whiteSpace=wrap;html=1;fontSize=16;shadow=0;" parent="1" vertex="1">
          <mxGeometry x="-3040" y="-4340" width="120" height="50" as="geometry" />
        </mxCell>
        <mxCell id="g4j1WKEGXEMlScfUfIoM-3" value="&lt;div style=&quot;font-size: 16px;&quot;&gt;No_of_Passengers&lt;/div&gt;" style="ellipse;whiteSpace=wrap;html=1;fontSize=16;shadow=0;" parent="1" vertex="1">
          <mxGeometry x="-3120" y="-4234.17" width="170" height="55" as="geometry" />
        </mxCell>
        <mxCell id="D9Trz5-T97EwNO3eNBlS-7" value="Owner" style="ellipse;whiteSpace=wrap;html=1;fontSize=16;shadow=0;" parent="1" vertex="1">
          <mxGeometry x="-1978" y="-4146.17" width="120" height="50" as="geometry" />
        </mxCell>
        <mxCell id="D9Trz5-T97EwNO3eNBlS-8" value="NTC Reg no" style="ellipse;whiteSpace=wrap;html=1;fontSize=16;shadow=0;" parent="1" vertex="1">
          <mxGeometry x="-1840" y="-4390" width="120" height="50" as="geometry" />
        </mxCell>
        <mxCell id="g4j1WKEGXEMlScfUfIoM-11" value="Ticket_No" style="ellipse;whiteSpace=wrap;html=1;align=center;fontStyle=4;fontSize=16;shadow=0;" parent="1" vertex="1">
          <mxGeometry x="-3110" y="-4160" width="120" height="50" as="geometry" />
        </mxCell>
        <mxCell id="g4j1WKEGXEMlScfUfIoM-20" value="" style="endArrow=none;html=1;rounded=0;fontSize=16;shadow=0;" parent="1" source="g4j1WKEGXEMlScfUfIoM-11" target="Lpcm2hX8-Bi3e6Y-f05t-5" edge="1">
          <mxGeometry relative="1" as="geometry">
            <mxPoint x="-2927.5" y="-4275.17" as="sourcePoint" />
            <mxPoint x="-2767.5" y="-4275.17" as="targetPoint" />
          </mxGeometry>
        </mxCell>
        <mxCell id="g4j1WKEGXEMlScfUfIoM-23" value="" style="endArrow=none;html=1;rounded=0;fontSize=16;shadow=0;" parent="1" source="g4j1WKEGXEMlScfUfIoM-3" target="Lpcm2hX8-Bi3e6Y-f05t-5" edge="1">
          <mxGeometry relative="1" as="geometry">
            <mxPoint x="-2747.5" y="-4315.17" as="sourcePoint" />
            <mxPoint x="-2753" y="-4203.17" as="targetPoint" />
            <Array as="points" />
          </mxGeometry>
        </mxCell>
        <mxCell id="g4j1WKEGXEMlScfUfIoM-31" value="" style="endArrow=none;html=1;rounded=0;fontSize=16;shadow=0;" parent="1" source="g4j1WKEGXEMlScfUfIoM-26" target="g4j1WKEGXEMlScfUfIoM-24" edge="1">
          <mxGeometry relative="1" as="geometry">
            <mxPoint x="-1277" y="-4372.92" as="sourcePoint" />
            <mxPoint x="-1237" y="-4282.92" as="targetPoint" />
            <Array as="points" />
          </mxGeometry>
        </mxCell>
        <mxCell id="g4j1WKEGXEMlScfUfIoM-32" value="" style="endArrow=none;html=1;rounded=0;fontSize=16;shadow=0;" parent="1" source="zxAbJX7jUapZkySxfnt0-14" target="g4j1WKEGXEMlScfUfIoM-24" edge="1">
          <mxGeometry relative="1" as="geometry">
            <mxPoint x="-1079.5964505345455" y="-4340.313467112388" as="sourcePoint" />
            <mxPoint x="-1227" y="-4272.92" as="targetPoint" />
          </mxGeometry>
        </mxCell>
        <mxCell id="g4j1WKEGXEMlScfUfIoM-41" value="" style="endArrow=none;html=1;rounded=0;exitX=0.5;exitY=0;exitDx=0;exitDy=0;entryX=0.25;entryY=1;entryDx=0;entryDy=0;fontSize=16;shadow=0;" parent="1" source="g4j1WKEGXEMlScfUfIoM-36" target="g4j1WKEGXEMlScfUfIoM-33" edge="1">
          <mxGeometry relative="1" as="geometry">
            <mxPoint x="-2305" y="-4023.8199999999997" as="sourcePoint" />
            <mxPoint x="-2345" y="-3933.8199999999997" as="targetPoint" />
            <Array as="points" />
          </mxGeometry>
        </mxCell>
        <mxCell id="D9Trz5-T97EwNO3eNBlS-18" value="" style="endArrow=none;html=1;rounded=0;entryX=0;entryY=1;entryDx=0;entryDy=0;fontSize=16;shadow=0;" parent="1" source="Lpcm2hX8-Bi3e6Y-f05t-6" target="D9Trz5-T97EwNO3eNBlS-8" edge="1">
          <mxGeometry width="50" height="50" relative="1" as="geometry">
            <mxPoint x="-1607" y="-4306.42" as="sourcePoint" />
            <mxPoint x="-1557" y="-4356.42" as="targetPoint" />
          </mxGeometry>
        </mxCell>
        <mxCell id="g4j1WKEGXEMlScfUfIoM-34" value="Date" style="ellipse;whiteSpace=wrap;html=1;fontSize=16;shadow=0;" parent="1" vertex="1">
          <mxGeometry x="-2680" y="-3872.5" width="120" height="50" as="geometry" />
        </mxCell>
        <mxCell id="g4j1WKEGXEMlScfUfIoM-29" value="" style="endArrow=none;html=1;rounded=0;fontSize=16;shadow=0;" parent="1" source="g4j1WKEGXEMlScfUfIoM-28" target="g4j1WKEGXEMlScfUfIoM-24" edge="1">
          <mxGeometry relative="1" as="geometry">
            <mxPoint x="-1367" y="-4322.92" as="sourcePoint" />
            <mxPoint x="-1207" y="-4322.92" as="targetPoint" />
          </mxGeometry>
        </mxCell>
        <mxCell id="g4j1WKEGXEMlScfUfIoM-45" value="" style="endArrow=none;html=1;rounded=0;exitX=0.5;exitY=0;exitDx=0;exitDy=0;entryX=0.62;entryY=1.051;entryDx=0;entryDy=0;entryPerimeter=0;fontSize=16;shadow=0;" parent="1" source="g4j1WKEGXEMlScfUfIoM-46" target="g4j1WKEGXEMlScfUfIoM-33" edge="1">
          <mxGeometry relative="1" as="geometry">
            <mxPoint x="-2165" y="-3983.8199999999997" as="sourcePoint" />
            <mxPoint x="-2210" y="-3872.8199999999997" as="targetPoint" />
            <Array as="points" />
          </mxGeometry>
        </mxCell>
        <mxCell id="g4j1WKEGXEMlScfUfIoM-43" value="" style="endArrow=none;html=1;rounded=0;exitX=0.5;exitY=0;exitDx=0;exitDy=0;entryX=0.5;entryY=0;entryDx=0;entryDy=0;fontSize=16;shadow=0;" parent="1" source="g4j1WKEGXEMlScfUfIoM-42" target="g4j1WKEGXEMlScfUfIoM-33" edge="1">
          <mxGeometry relative="1" as="geometry">
            <mxPoint x="-2175" y="-4100.82" as="sourcePoint" />
            <mxPoint x="-2145" y="-3959.8199999999997" as="targetPoint" />
            <Array as="points" />
          </mxGeometry>
        </mxCell>
        <mxCell id="g4j1WKEGXEMlScfUfIoM-46" value="Vehical_Reg_No (F)" style="ellipse;whiteSpace=wrap;html=1;fontSize=16;shadow=0;" parent="1" vertex="1">
          <mxGeometry x="-2194" y="-3742.5" width="164" height="60" as="geometry" />
        </mxCell>
        <mxCell id="g4j1WKEGXEMlScfUfIoM-42" value="Route_No (F)" style="ellipse;whiteSpace=wrap;html=1;fontSize=16;shadow=0;" parent="1" vertex="1">
          <mxGeometry x="-2332" y="-3742.5" width="120" height="50" as="geometry" />
        </mxCell>
        <mxCell id="g4j1WKEGXEMlScfUfIoM-47" value="" style="endArrow=none;html=1;rounded=0;exitX=0;exitY=0;exitDx=0;exitDy=0;entryX=0.86;entryY=0.963;entryDx=0;entryDy=0;entryPerimeter=0;fontSize=16;shadow=0;" parent="1" source="g4j1WKEGXEMlScfUfIoM-48" target="g4j1WKEGXEMlScfUfIoM-33" edge="1">
          <mxGeometry relative="1" as="geometry">
            <mxPoint x="-2155" y="-3973.8199999999997" as="sourcePoint" />
            <mxPoint x="-2116" y="-3820.8199999999997" as="targetPoint" />
            <Array as="points" />
          </mxGeometry>
        </mxCell>
        <mxCell id="g4j1WKEGXEMlScfUfIoM-48" value="Driver_ID (F)" style="ellipse;whiteSpace=wrap;html=1;fontSize=16;shadow=0;" parent="1" vertex="1">
          <mxGeometry x="-2016" y="-3763.8199999999997" width="120" height="50" as="geometry" />
        </mxCell>
        <mxCell id="g4j1WKEGXEMlScfUfIoM-49" value="" style="endArrow=none;html=1;rounded=0;exitX=0;exitY=0.5;exitDx=0;exitDy=0;entryX=1;entryY=1;entryDx=0;entryDy=0;fontSize=16;shadow=0;" parent="1" source="g4j1WKEGXEMlScfUfIoM-50" target="g4j1WKEGXEMlScfUfIoM-33" edge="1">
          <mxGeometry relative="1" as="geometry">
            <mxPoint x="-1826" y="-3862.8199999999997" as="sourcePoint" />
            <mxPoint x="-1990" y="-3772.8199999999997" as="targetPoint" />
            <Array as="points" />
          </mxGeometry>
        </mxCell>
        <mxCell id="g4j1WKEGXEMlScfUfIoM-50" value="Conductor_ID (F)" style="ellipse;whiteSpace=wrap;html=1;fontSize=16;shadow=0;" parent="1" vertex="1">
          <mxGeometry x="-1894" y="-3813.8199999999997" width="148" height="60.32" as="geometry" />
        </mxCell>
        <mxCell id="g4j1WKEGXEMlScfUfIoM-26" value="To" style="ellipse;whiteSpace=wrap;html=1;fontSize=16;shadow=0;" parent="1" vertex="1">
          <mxGeometry x="-1430" y="-4146.17" width="120" height="50" as="geometry" />
        </mxCell>
        <mxCell id="g4j1WKEGXEMlScfUfIoM-25" value="From" style="ellipse;whiteSpace=wrap;html=1;fontSize=16;shadow=0;" parent="1" vertex="1">
          <mxGeometry x="-1270" y="-4367.17" width="120" height="50" as="geometry" />
        </mxCell>
        <mxCell id="oJ5dwSXZvKnoDjy4rw64-4" value="&lt;font style=&quot;font-size: 16px;&quot;&gt;*NTC_Reg_No&lt;/font&gt;" style="ellipse;whiteSpace=wrap;html=1;fontSize=16;shadow=0;" parent="1" vertex="1">
          <mxGeometry x="-2362" y="-4960" width="180" height="55" as="geometry" />
        </mxCell>
        <mxCell id="g4j1WKEGXEMlScfUfIoM-33" value="SCHEDULE" style="rounded=0;whiteSpace=wrap;html=1;fontSize=16;shadow=0;" parent="1" vertex="1">
          <mxGeometry x="-2335" y="-3882.8199999999997" width="230" height="40" as="geometry" />
        </mxCell>
        <mxCell id="g4j1WKEGXEMlScfUfIoM-35" value="Departure_Time" style="ellipse;whiteSpace=wrap;html=1;fontSize=16;shadow=0;" parent="1" vertex="1">
          <mxGeometry x="-2610" y="-3813.8199999999997" width="144" height="61.32" as="geometry" />
        </mxCell>
        <mxCell id="g4j1WKEGXEMlScfUfIoM-36" value="Arrival_Time" style="ellipse;whiteSpace=wrap;html=1;fontSize=16;shadow=0;" parent="1" vertex="1">
          <mxGeometry x="-2466" y="-3763.8199999999997" width="120" height="50" as="geometry" />
        </mxCell>
        <mxCell id="g4j1WKEGXEMlScfUfIoM-37" value="Schedule_ID" style="ellipse;whiteSpace=wrap;html=1;align=center;fontStyle=4;fontSize=16;shadow=0;" parent="1" vertex="1">
          <mxGeometry x="-2550" y="-4003.5" width="120" height="50" as="geometry" />
        </mxCell>
        <mxCell id="D9Trz5-T97EwNO3eNBlS-17" value="" style="endArrow=none;html=1;rounded=0;entryX=0.5;entryY=0;entryDx=0;entryDy=0;exitX=0.5;exitY=1;exitDx=0;exitDy=0;fontSize=16;shadow=0;" parent="1" source="Lpcm2hX8-Bi3e6Y-f05t-6" target="D9Trz5-T97EwNO3eNBlS-7" edge="1">
          <mxGeometry width="50" height="50" relative="1" as="geometry">
            <mxPoint x="-2027" y="-4248.17" as="sourcePoint" />
            <mxPoint x="-2027" y="-4341.17" as="targetPoint" />
          </mxGeometry>
        </mxCell>
        <mxCell id="oJ5dwSXZvKnoDjy4rw64-7" value="" style="endArrow=none;html=1;rounded=0;fontSize=16;shadow=0;" parent="1" source="oJ5dwSXZvKnoDjy4rw64-4" target="jeDREkuSJJcBFd6zUcUg-6" edge="1">
          <mxGeometry width="50" height="50" relative="1" as="geometry">
            <mxPoint x="-1646.5" y="-4845.88" as="sourcePoint" />
            <mxPoint x="-1837.2106781186549" y="-4794.75" as="targetPoint" />
          </mxGeometry>
        </mxCell>
        <mxCell id="g4j1WKEGXEMlScfUfIoM-51" value="" style="endArrow=none;html=1;rounded=0;entryX=1;entryY=0.5;entryDx=0;entryDy=0;exitX=0;exitY=0.5;exitDx=0;exitDy=0;fontSize=16;shadow=0;" parent="1" source="g4j1WKEGXEMlScfUfIoM-52" target="g4j1WKEGXEMlScfUfIoM-33" edge="1">
          <mxGeometry relative="1" as="geometry">
            <mxPoint x="-1827.900400140783" y="-3881.342059201903" as="sourcePoint" />
            <mxPoint x="-2105" y="-3842.8199999999997" as="targetPoint" />
            <Array as="points" />
          </mxGeometry>
        </mxCell>
        <mxCell id="g4j1WKEGXEMlScfUfIoM-52" value="Available_Seats" style="ellipse;whiteSpace=wrap;html=1;fontSize=16;shadow=0;dashed=1;dashPattern=8 8;" parent="1" vertex="1">
          <mxGeometry x="-1911" y="-3891.9799999999996" width="146" height="58.32" as="geometry" />
        </mxCell>
        <mxCell id="g4j1WKEGXEMlScfUfIoM-38" value="" style="endArrow=none;html=1;rounded=0;exitX=1;exitY=1;exitDx=0;exitDy=0;fontSize=16;shadow=0;" parent="1" source="g4j1WKEGXEMlScfUfIoM-37" target="g4j1WKEGXEMlScfUfIoM-33" edge="1">
          <mxGeometry relative="1" as="geometry">
            <mxPoint x="-2485" y="-3983.8199999999997" as="sourcePoint" />
            <mxPoint x="-2325" y="-3983.8199999999997" as="targetPoint" />
          </mxGeometry>
        </mxCell>
        <mxCell id="g4j1WKEGXEMlScfUfIoM-39" value="" style="endArrow=none;html=1;rounded=0;exitX=1;exitY=0.5;exitDx=0;exitDy=0;entryX=0;entryY=0.5;entryDx=0;entryDy=0;fontSize=16;shadow=0;" parent="1" source="g4j1WKEGXEMlScfUfIoM-34" target="g4j1WKEGXEMlScfUfIoM-33" edge="1">
          <mxGeometry relative="1" as="geometry">
            <mxPoint x="-2572" y="-3970.8199999999997" as="sourcePoint" />
            <mxPoint x="-2435" y="-3913.8199999999997" as="targetPoint" />
            <Array as="points" />
          </mxGeometry>
        </mxCell>
        <mxCell id="g4j1WKEGXEMlScfUfIoM-28" value="Route_No" style="ellipse;whiteSpace=wrap;html=1;align=center;fontStyle=4;fontSize=16;shadow=0;" parent="1" vertex="1">
          <mxGeometry x="-1418" y="-4367.17" width="120" height="50" as="geometry" />
        </mxCell>
        <mxCell id="g4j1WKEGXEMlScfUfIoM-40" value="" style="endArrow=none;html=1;rounded=0;exitX=1;exitY=0.5;exitDx=0;exitDy=0;entryX=0;entryY=1;entryDx=0;entryDy=0;fontSize=16;shadow=0;" parent="1" source="g4j1WKEGXEMlScfUfIoM-35" target="g4j1WKEGXEMlScfUfIoM-33" edge="1">
          <mxGeometry relative="1" as="geometry">
            <mxPoint x="-2395" y="-4033.8199999999997" as="sourcePoint" />
            <mxPoint x="-2355" y="-3943.8199999999997" as="targetPoint" />
            <Array as="points" />
          </mxGeometry>
        </mxCell>
        <mxCell id="D9Trz5-T97EwNO3eNBlS-19" value="" style="endArrow=none;html=1;rounded=0;entryX=1;entryY=0.5;entryDx=0;entryDy=0;exitX=0;exitY=0.25;exitDx=0;exitDy=0;fontSize=16;shadow=0;" parent="1" source="Lpcm2hX8-Bi3e6Y-f05t-6" target="kJq4WHonTFXw_2QPwqAH-11" edge="1">
          <mxGeometry width="50" height="50" relative="1" as="geometry">
            <mxPoint x="-1607" y="-4328.42" as="sourcePoint" />
            <mxPoint x="-1865.1014982375468" y="-4280.778167377832" as="targetPoint" />
          </mxGeometry>
        </mxCell>
        <mxCell id="g4j1WKEGXEMlScfUfIoM-24" value="ROUTE" style="rounded=0;whiteSpace=wrap;html=1;fontSize=16;shadow=0;" parent="1" vertex="1">
          <mxGeometry x="-1418" y="-4253.17" width="120" height="40" as="geometry" />
        </mxCell>
        <mxCell id="g4j1WKEGXEMlScfUfIoM-30" value="" style="endArrow=none;html=1;rounded=0;fontSize=16;shadow=0;" parent="1" source="g4j1WKEGXEMlScfUfIoM-25" target="g4j1WKEGXEMlScfUfIoM-24" edge="1">
          <mxGeometry relative="1" as="geometry">
            <mxPoint x="-1270" y="-4296.17" as="sourcePoint" />
            <mxPoint x="-1317" y="-4252.92" as="targetPoint" />
            <Array as="points" />
          </mxGeometry>
        </mxCell>
        <mxCell id="g4j1WKEGXEMlScfUfIoM-22" value="" style="endArrow=none;html=1;rounded=0;fontSize=16;shadow=0;" parent="1" source="g4j1WKEGXEMlScfUfIoM-2" target="Lpcm2hX8-Bi3e6Y-f05t-5" edge="1">
          <mxGeometry relative="1" as="geometry">
            <mxPoint x="-2837.5" y="-4325.17" as="sourcePoint" />
            <mxPoint x="-2797.5" y="-4235.17" as="targetPoint" />
            <Array as="points" />
          </mxGeometry>
        </mxCell>
        <mxCell id="Lpcm2hX8-Bi3e6Y-f05t-34" value="" style="endArrow=none;html=1;rounded=0;fontSize=16;shadow=0;" parent="1" source="Lpcm2hX8-Bi3e6Y-f05t-37" target="Lpcm2hX8-Bi3e6Y-f05t-41" edge="1">
          <mxGeometry relative="1" as="geometry">
            <mxPoint x="-2819.5" y="-5003.75" as="sourcePoint" />
            <mxPoint x="-2779.5" y="-4913.75" as="targetPoint" />
            <Array as="points" />
          </mxGeometry>
        </mxCell>
        <mxCell id="oJ5dwSXZvKnoDjy4rw64-17" value="" style="endArrow=none;html=1;rounded=0;fontSize=16;shadow=0;" parent="1" source="jeDREkuSJJcBFd6zUcUg-6" target="oJ5dwSXZvKnoDjy4rw64-14" edge="1">
          <mxGeometry width="50" height="50" relative="1" as="geometry">
            <mxPoint x="-2381" y="-4804.63" as="sourcePoint" />
            <mxPoint x="-2310.289321881345" y="-4783.63" as="targetPoint" />
          </mxGeometry>
        </mxCell>
        <mxCell id="Lpcm2hX8-Bi3e6Y-f05t-37" value="Available_Credits" style="ellipse;whiteSpace=wrap;html=1;fontSize=16;shadow=0;" parent="1" vertex="1">
          <mxGeometry x="-2950" y="-4980" width="156" height="50" as="geometry" />
        </mxCell>
        <mxCell id="Lpcm2hX8-Bi3e6Y-f05t-41" value="PASSENGER" style="rounded=0;whiteSpace=wrap;html=1;fontSize=16;shadow=0;" parent="1" vertex="1">
          <mxGeometry x="-2889.5" y="-4898.75" width="120" height="40" as="geometry" />
        </mxCell>
        <mxCell id="oJ5dwSXZvKnoDjy4rw64-14" value="&lt;font style=&quot;font-size: 16px;&quot;&gt;*License_ID (NULL)&lt;/font&gt;" style="ellipse;whiteSpace=wrap;html=1;fontSize=16;shadow=0;" parent="1" vertex="1">
          <mxGeometry x="-2016" y="-4992.5" width="176" height="62.5" as="geometry" />
        </mxCell>
        <mxCell id="zxAbJX7jUapZkySxfnt0-10" value="Booked by" style="rhombus;whiteSpace=wrap;html=1;fontSize=16;shadow=0;" parent="1" vertex="1">
          <mxGeometry x="-2892.5" y="-4603.5" width="120" height="99" as="geometry" />
        </mxCell>
        <mxCell id="zxAbJX7jUapZkySxfnt0-12" value="Works in" style="rhombus;whiteSpace=wrap;html=1;fontSize=16;shadow=0;" parent="1" vertex="1">
          <mxGeometry x="-1989" y="-4562.5" width="120" height="99" as="geometry" />
        </mxCell>
        <mxCell id="zxAbJX7jUapZkySxfnt0-13" value="Taken by" style="rhombus;whiteSpace=wrap;html=1;fontSize=16;shadow=0;" parent="1" vertex="1">
          <mxGeometry x="-1648" y="-4262.67" width="120" height="99" as="geometry" />
        </mxCell>
        <mxCell id="zxAbJX7jUapZkySxfnt0-14" value="Fare_Stage" style="ellipse;whiteSpace=wrap;html=1;align=center;fontSize=16;shadow=0;" parent="1" vertex="1">
          <mxGeometry x="-1290" y="-4170.5" width="120" height="50" as="geometry" />
        </mxCell>
        <mxCell id="Lpcm2hX8-Bi3e6Y-f05t-7" value="Last_Name" style="ellipse;whiteSpace=wrap;html=1;movable=1;resizable=1;rotatable=1;deletable=1;editable=1;locked=0;connectable=1;fontSize=16;shadow=0;" parent="1" vertex="1">
          <mxGeometry x="-1840" y="-5302.5" width="120" height="50" as="geometry" />
        </mxCell>
        <mxCell id="Lpcm2hX8-Bi3e6Y-f05t-10" value="Date_of_Birth" style="ellipse;whiteSpace=wrap;html=1;movable=1;resizable=1;rotatable=1;deletable=1;editable=1;locked=0;connectable=1;fontSize=16;shadow=0;" parent="1" vertex="1">
          <mxGeometry x="-2001" y="-5215" width="120" height="50" as="geometry" />
        </mxCell>
        <mxCell id="Lpcm2hX8-Bi3e6Y-f05t-22" value="" style="endArrow=none;html=1;rounded=0;exitX=1;exitY=0.5;exitDx=0;exitDy=0;entryX=0;entryY=1;entryDx=0;entryDy=0;movable=1;resizable=1;rotatable=1;deletable=1;editable=1;locked=0;connectable=1;fontSize=16;shadow=0;" parent="1" source="Lpcm2hX8-Bi3e6Y-f05t-21" target="Lpcm2hX8-Bi3e6Y-f05t-17" edge="1">
          <mxGeometry relative="1" as="geometry">
            <mxPoint x="-2252" y="-5152.5" as="sourcePoint" />
            <mxPoint x="-2092" y="-5152.5" as="targetPoint" />
          </mxGeometry>
        </mxCell>
        <mxCell id="Lpcm2hX8-Bi3e6Y-f05t-25" value="" style="endArrow=none;html=1;rounded=0;exitX=0.5;exitY=0;exitDx=0;exitDy=0;movable=1;resizable=1;rotatable=1;deletable=1;editable=1;locked=0;connectable=1;entryX=0.5;entryY=1;entryDx=0;entryDy=0;fontSize=16;shadow=0;" parent="1" source="Lpcm2hX8-Bi3e6Y-f05t-20" target="Lpcm2hX8-Bi3e6Y-f05t-17" edge="1">
          <mxGeometry relative="1" as="geometry">
            <mxPoint x="-2072" y="-5112.5" as="sourcePoint" />
            <mxPoint x="-2152" y="-5182.5" as="targetPoint" />
            <Array as="points" />
          </mxGeometry>
        </mxCell>
        <mxCell id="Lpcm2hX8-Bi3e6Y-f05t-18" value="*Email" style="ellipse;whiteSpace=wrap;html=1;movable=1;resizable=1;rotatable=1;deletable=1;editable=1;locked=0;connectable=1;fontSize=16;shadow=0;" parent="1" vertex="1">
          <mxGeometry x="-2106" y="-5352.5" width="120" height="50" as="geometry" />
        </mxCell>
        <mxCell id="Lpcm2hX8-Bi3e6Y-f05t-17" value="USERS" style="rounded=0;whiteSpace=wrap;html=1;movable=1;resizable=1;rotatable=1;deletable=1;editable=1;locked=0;connectable=1;fontSize=16;shadow=0;" parent="1" vertex="1">
          <mxGeometry x="-2212" y="-5232.5" width="120" height="40" as="geometry" />
        </mxCell>
        <mxCell id="Lpcm2hX8-Bi3e6Y-f05t-28" value="" style="endArrow=none;html=1;rounded=0;exitX=0;exitY=0.5;exitDx=0;exitDy=0;movable=1;resizable=1;rotatable=1;deletable=1;editable=1;locked=0;connectable=1;fontSize=16;shadow=0;" parent="1" source="Lpcm2hX8-Bi3e6Y-f05t-10" target="Lpcm2hX8-Bi3e6Y-f05t-17" edge="1">
          <mxGeometry relative="1" as="geometry">
            <mxPoint x="-1932" y="-5127.5" as="sourcePoint" />
            <mxPoint x="-2087" y="-5162.5" as="targetPoint" />
            <Array as="points" />
          </mxGeometry>
        </mxCell>
        <mxCell id="Lpcm2hX8-Bi3e6Y-f05t-21" value="User_ID" style="ellipse;whiteSpace=wrap;html=1;align=center;fontStyle=4;movable=1;resizable=1;rotatable=1;deletable=1;editable=1;locked=0;connectable=1;fontSize=16;shadow=0;" parent="1" vertex="1">
          <mxGeometry x="-2362" y="-5165" width="120" height="50" as="geometry" />
        </mxCell>
        <mxCell id="Lpcm2hX8-Bi3e6Y-f05t-23" value="" style="endArrow=none;html=1;rounded=0;movable=1;resizable=1;rotatable=1;deletable=1;editable=1;locked=0;connectable=1;fontSize=16;shadow=0;" parent="1" source="Lpcm2hX8-Bi3e6Y-f05t-18" target="Lpcm2hX8-Bi3e6Y-f05t-17" edge="1">
          <mxGeometry relative="1" as="geometry">
            <mxPoint x="-2339" y="-5165.5" as="sourcePoint" />
            <mxPoint x="-2202" y="-5222.5" as="targetPoint" />
            <Array as="points" />
          </mxGeometry>
        </mxCell>
        <mxCell id="Lpcm2hX8-Bi3e6Y-f05t-20" value="Name" style="ellipse;whiteSpace=wrap;html=1;movable=1;resizable=1;rotatable=1;deletable=1;editable=1;locked=0;connectable=1;fontSize=16;shadow=0;" parent="1" vertex="1">
          <mxGeometry x="-2001" y="-5292.5" width="120" height="50" as="geometry" />
        </mxCell>
        <mxCell id="Lpcm2hX8-Bi3e6Y-f05t-26" value="" style="endArrow=none;html=1;rounded=0;movable=1;resizable=1;rotatable=1;deletable=1;editable=1;locked=0;connectable=1;fontSize=16;shadow=0;" parent="1" source="Lpcm2hX8-Bi3e6Y-f05t-7" target="Lpcm2hX8-Bi3e6Y-f05t-20" edge="1">
          <mxGeometry relative="1" as="geometry">
            <mxPoint x="-2102" y="-5086.5" as="sourcePoint" />
            <mxPoint x="-2082" y="-5202.5" as="targetPoint" />
            <Array as="points" />
          </mxGeometry>
        </mxCell>
        <mxCell id="Lpcm2hX8-Bi3e6Y-f05t-27" value="" style="endArrow=none;html=1;rounded=0;movable=1;resizable=1;rotatable=1;deletable=1;editable=1;locked=0;connectable=1;fontSize=16;shadow=0;" parent="1" source="OWGKT9oohetTBbXcena5-35" target="Lpcm2hX8-Bi3e6Y-f05t-17" edge="1">
          <mxGeometry relative="1" as="geometry">
            <mxPoint x="-2332.376220460251" y="-5225.7430878731375" as="sourcePoint" />
            <mxPoint x="-2082" y="-5212.5" as="targetPoint" />
            <Array as="points" />
          </mxGeometry>
        </mxCell>
        <mxCell id="Lpcm2hX8-Bi3e6Y-f05t-47" style="edgeStyle=orthogonalEdgeStyle;rounded=0;orthogonalLoop=1;jettySize=auto;html=1;exitX=0.5;exitY=1;exitDx=0;exitDy=0;fontSize=16;shadow=0;" parent="1" edge="1">
          <mxGeometry relative="1" as="geometry">
            <mxPoint x="-2391.5" y="-5205" as="sourcePoint" />
            <mxPoint x="-2391.5" y="-5205" as="targetPoint" />
          </mxGeometry>
        </mxCell>
        <mxCell id="oJ5dwSXZvKnoDjy4rw64-24" value="&lt;font style=&quot;font-size: 16px;&quot;&gt;O&lt;/font&gt;" style="ellipse;whiteSpace=wrap;html=1;aspect=fixed;fontSize=16;shadow=0;" parent="1" vertex="1">
          <mxGeometry x="-2168.5" y="-5143.5" width="30" height="30" as="geometry" />
        </mxCell>
        <mxCell id="oJ5dwSXZvKnoDjy4rw64-25" value="" style="endArrow=none;html=1;rounded=0;entryX=0.5;entryY=0;entryDx=0;entryDy=0;fontSize=16;shadow=0;" parent="1" source="Lpcm2hX8-Bi3e6Y-f05t-17" target="oJ5dwSXZvKnoDjy4rw64-24" edge="1">
          <mxGeometry width="50" height="50" relative="1" as="geometry">
            <mxPoint x="-2728.5" y="-3892.210678118655" as="sourcePoint" />
            <mxPoint x="-2158.5" y="-5153.5" as="targetPoint" />
          </mxGeometry>
        </mxCell>
        <mxCell id="oJ5dwSXZvKnoDjy4rw64-32" value="" style="endArrow=none;html=1;rounded=0;entryX=1;entryY=0.5;entryDx=0;entryDy=0;fontSize=16;shadow=0;shape=link;" parent="1" source="oJ5dwSXZvKnoDjy4rw64-39" target="Lpcm2hX8-Bi3e6Y-f05t-41" edge="1">
          <mxGeometry width="50" height="50" relative="1" as="geometry">
            <mxPoint x="-2626.710678118655" y="-3756.5" as="sourcePoint" />
            <mxPoint x="-2626.710678118655" y="-3806.5" as="targetPoint" />
          </mxGeometry>
        </mxCell>
        <mxCell id="oJ5dwSXZvKnoDjy4rw64-33" value="" style="endArrow=none;html=1;rounded=0;fontSize=16;shadow=0;" parent="1" source="oJ5dwSXZvKnoDjy4rw64-24" target="jeDREkuSJJcBFd6zUcUg-6" edge="1">
          <mxGeometry width="50" height="50" relative="1" as="geometry">
            <mxPoint x="-2541" y="-3842.210678118655" as="sourcePoint" />
            <mxPoint x="-1950" y="-4700" as="targetPoint" />
          </mxGeometry>
        </mxCell>
        <mxCell id="jeDREkuSJJcBFd6zUcUg-6" value="EMPLOYEE" style="whiteSpace=wrap;html=1;align=center;fontSize=16;shadow=0;" parent="1" vertex="1">
          <mxGeometry x="-2146" y="-4860" width="130" height="40" as="geometry" />
        </mxCell>
        <mxCell id="jeDREkuSJJcBFd6zUcUg-11" value="" style="endArrow=none;html=1;rounded=0;entryX=0.5;entryY=0;entryDx=0;entryDy=0;exitX=0.5;exitY=1;exitDx=0;exitDy=0;fontSize=16;shadow=0;" parent="1" source="jeDREkuSJJcBFd6zUcUg-6" target="zxAbJX7jUapZkySxfnt0-12" edge="1">
          <mxGeometry relative="1" as="geometry">
            <mxPoint x="-1891" y="-4645.5" as="sourcePoint" />
            <mxPoint x="-1916" y="-4635.5" as="targetPoint" />
          </mxGeometry>
        </mxCell>
        <mxCell id="jeDREkuSJJcBFd6zUcUg-12" value="N" style="resizable=0;html=1;whiteSpace=wrap;align=right;verticalAlign=bottom;fontSize=16;shadow=0;" parent="jeDREkuSJJcBFd6zUcUg-11" connectable="0" vertex="1">
          <mxGeometry x="1" relative="1" as="geometry">
            <mxPoint x="-5" as="offset" />
          </mxGeometry>
        </mxCell>
        <mxCell id="jeDREkuSJJcBFd6zUcUg-13" value="" style="endArrow=none;html=1;rounded=0;exitX=0.5;exitY=0;exitDx=0;exitDy=0;entryX=0.5;entryY=1;entryDx=0;entryDy=0;fontSize=16;shadow=0;" parent="1" source="Lpcm2hX8-Bi3e6Y-f05t-6" target="zxAbJX7jUapZkySxfnt0-12" edge="1">
          <mxGeometry relative="1" as="geometry">
            <mxPoint x="-1712" y="-4251.42" as="sourcePoint" />
            <mxPoint x="-1674.5" y="-4238.42" as="targetPoint" />
          </mxGeometry>
        </mxCell>
        <mxCell id="jeDREkuSJJcBFd6zUcUg-14" value="&lt;font style=&quot;font-size: 16px;&quot;&gt;1&lt;/font&gt;" style="resizable=0;html=1;whiteSpace=wrap;align=right;verticalAlign=bottom;fontSize=16;shadow=0;" parent="jeDREkuSJJcBFd6zUcUg-13" connectable="0" vertex="1">
          <mxGeometry x="1" relative="1" as="geometry">
            <mxPoint x="-10" y="25" as="offset" />
          </mxGeometry>
        </mxCell>
        <mxCell id="kJq4WHonTFXw_2QPwqAH-7" value="" style="endArrow=none;html=1;rounded=0;fontSize=16;shadow=0;" parent="1" source="Lpcm2hX8-Bi3e6Y-f05t-6" target="D9Trz5-T97EwNO3eNBlS-6" edge="1">
          <mxGeometry width="50" height="50" relative="1" as="geometry">
            <mxPoint x="-1727" y="-4328.42" as="sourcePoint" />
            <mxPoint x="-1827" y="-4448.42" as="targetPoint" />
          </mxGeometry>
        </mxCell>
        <mxCell id="D9Trz5-T97EwNO3eNBlS-6" value="&lt;u style=&quot;font-size: 16px;&quot;&gt;Vehicle Reg No&lt;/u&gt;" style="ellipse;whiteSpace=wrap;html=1;fontSize=16;shadow=0;" parent="1" vertex="1">
          <mxGeometry x="-1808" y="-4175.17" width="138" height="65.17" as="geometry" />
        </mxCell>
        <mxCell id="kJq4WHonTFXw_2QPwqAH-11" value="No of seats" style="ellipse;whiteSpace=wrap;html=1;fontSize=16;shadow=0;" parent="1" vertex="1">
          <mxGeometry x="-2166" y="-4282.17" width="120" height="50" as="geometry" />
        </mxCell>
        <mxCell id="jeDREkuSJJcBFd6zUcUg-24" value="" style="shape=requiredInterface;html=1;verticalLabelPosition=bottom;sketch=0;rotation=60;fontSize=16;shadow=0;" parent="1" vertex="1">
          <mxGeometry x="-2122" y="-4998.25" width="10" height="20" as="geometry" />
        </mxCell>
        <mxCell id="jeDREkuSJJcBFd6zUcUg-26" value="" style="endArrow=none;html=1;rounded=0;entryX=0.5;entryY=1;entryDx=0;entryDy=0;exitX=0.5;exitY=0;exitDx=0;exitDy=0;fontSize=16;shadow=0;shape=link;" parent="1" source="Lpcm2hX8-Bi3e6Y-f05t-5" target="zxAbJX7jUapZkySxfnt0-10" edge="1">
          <mxGeometry relative="1" as="geometry">
            <mxPoint x="-2930" y="-4628.5" as="sourcePoint" />
            <mxPoint x="-2770" y="-4628.5" as="targetPoint" />
          </mxGeometry>
        </mxCell>
        <mxCell id="jeDREkuSJJcBFd6zUcUg-27" value="M" style="resizable=0;html=1;whiteSpace=wrap;align=right;verticalAlign=bottom;fontSize=16;shadow=0;" parent="jeDREkuSJJcBFd6zUcUg-26" connectable="0" vertex="1">
          <mxGeometry x="1" relative="1" as="geometry">
            <mxPoint x="-7" y="26" as="offset" />
          </mxGeometry>
        </mxCell>
        <mxCell id="jeDREkuSJJcBFd6zUcUg-28" value="" style="endArrow=none;html=1;rounded=0;entryX=0.5;entryY=1;entryDx=0;entryDy=0;exitX=0.5;exitY=0;exitDx=0;exitDy=0;fontSize=16;shadow=0;" parent="1" source="zxAbJX7jUapZkySxfnt0-10" target="Lpcm2hX8-Bi3e6Y-f05t-41" edge="1">
          <mxGeometry relative="1" as="geometry">
            <mxPoint x="-2930" y="-4778.5" as="sourcePoint" />
            <mxPoint x="-2770" y="-4778.5" as="targetPoint" />
          </mxGeometry>
        </mxCell>
        <mxCell id="jeDREkuSJJcBFd6zUcUg-29" value="N" style="resizable=0;html=1;whiteSpace=wrap;align=right;verticalAlign=bottom;fontSize=16;shadow=0;" parent="jeDREkuSJJcBFd6zUcUg-28" connectable="0" vertex="1">
          <mxGeometry x="1" relative="1" as="geometry">
            <mxPoint x="-10" y="238" as="offset" />
          </mxGeometry>
        </mxCell>
        <mxCell id="jeDREkuSJJcBFd6zUcUg-32" value="" style="endArrow=none;html=1;rounded=0;exitX=1;exitY=0.5;exitDx=0;exitDy=0;entryX=0;entryY=0.5;entryDx=0;entryDy=0;fontSize=16;shadow=0;" parent="1" source="Lpcm2hX8-Bi3e6Y-f05t-6" target="zxAbJX7jUapZkySxfnt0-13" edge="1">
          <mxGeometry relative="1" as="geometry">
            <mxPoint x="-1818" y="-4213.17" as="sourcePoint" />
            <mxPoint x="-1658" y="-4213.17" as="targetPoint" />
          </mxGeometry>
        </mxCell>
        <mxCell id="jeDREkuSJJcBFd6zUcUg-33" value="1" style="resizable=0;html=1;whiteSpace=wrap;align=right;verticalAlign=bottom;fontSize=16;shadow=0;" parent="jeDREkuSJJcBFd6zUcUg-32" connectable="0" vertex="1">
          <mxGeometry x="1" relative="1" as="geometry" />
        </mxCell>
        <mxCell id="jeDREkuSJJcBFd6zUcUg-34" value="" style="endArrow=none;html=1;rounded=0;entryX=1;entryY=0.5;entryDx=0;entryDy=0;exitX=0;exitY=0.5;exitDx=0;exitDy=0;fontSize=16;shadow=0;" parent="1" source="g4j1WKEGXEMlScfUfIoM-24" target="zxAbJX7jUapZkySxfnt0-13" edge="1">
          <mxGeometry relative="1" as="geometry">
            <mxPoint x="-1588" y="-4186.17" as="sourcePoint" />
            <mxPoint x="-1428" y="-4186.17" as="targetPoint" />
          </mxGeometry>
        </mxCell>
        <mxCell id="jeDREkuSJJcBFd6zUcUg-35" value="1" style="resizable=0;html=1;whiteSpace=wrap;align=right;verticalAlign=bottom;fontSize=16;shadow=0;" parent="jeDREkuSJJcBFd6zUcUg-34" connectable="0" vertex="1">
          <mxGeometry x="1" relative="1" as="geometry">
            <mxPoint x="12" y="-4" as="offset" />
          </mxGeometry>
        </mxCell>
        <mxCell id="kJq4WHonTFXw_2QPwqAH-18" value="Belongs" style="rhombus;whiteSpace=wrap;html=1;fontSize=16;shadow=0;" parent="1" vertex="1">
          <mxGeometry x="-1710" y="-4052.5" width="120" height="99" as="geometry" />
        </mxCell>
        <mxCell id="kJq4WHonTFXw_2QPwqAH-20" value="Belongs" style="rhombus;whiteSpace=wrap;html=1;fontSize=16;shadow=0;" parent="1" vertex="1">
          <mxGeometry x="-2136" y="-4091.3199999999997" width="120" height="99" as="geometry" />
        </mxCell>
        <mxCell id="kJq4WHonTFXw_2QPwqAH-21" value="Belongs" style="rhombus;whiteSpace=wrap;html=1;fontSize=16;shadow=0;" parent="1" vertex="1">
          <mxGeometry x="-2889.5" y="-4070" width="120" height="99" as="geometry" />
        </mxCell>
        <mxCell id="kJq4WHonTFXw_2QPwqAH-22" value="Belongs" style="rhombus;whiteSpace=wrap;html=1;fontSize=16;shadow=1;" parent="1" vertex="1">
          <mxGeometry x="-2381" y="-4236.67" width="120" height="99" as="geometry" />
        </mxCell>
        <mxCell id="kJq4WHonTFXw_2QPwqAH-24" value="" style="endArrow=none;html=1;rounded=0;entryX=1;entryY=0.5;entryDx=0;entryDy=0;fontSize=16;shadow=0;shape=link;" parent="1" source="oJ5dwSXZvKnoDjy4rw64-24" target="oJ5dwSXZvKnoDjy4rw64-39" edge="1">
          <mxGeometry width="50" height="50" relative="1" as="geometry">
            <mxPoint x="-2270" y="-4973.5" as="sourcePoint" />
            <mxPoint x="-2769" y="-4795.5" as="targetPoint" />
          </mxGeometry>
        </mxCell>
        <mxCell id="oJ5dwSXZvKnoDjy4rw64-39" value="" style="shape=requiredInterface;html=1;verticalLabelPosition=bottom;sketch=0;rotation=-210;fontSize=16;shadow=0;" parent="1" vertex="1">
          <mxGeometry x="-2531" y="-4992.5" width="10" height="20" as="geometry" />
        </mxCell>
        <mxCell id="kJq4WHonTFXw_2QPwqAH-25" value="" style="endArrow=none;html=1;rounded=0;entryX=0.5;entryY=1;entryDx=0;entryDy=0;fontSize=16;shadow=0;" parent="1" source="g4j1WKEGXEMlScfUfIoM-33" target="kJq4WHonTFXw_2QPwqAH-21" edge="1">
          <mxGeometry relative="1" as="geometry">
            <mxPoint x="-2246" y="-4042.5" as="sourcePoint" />
            <mxPoint x="-2256" y="-3982.5" as="targetPoint" />
          </mxGeometry>
        </mxCell>
        <mxCell id="kJq4WHonTFXw_2QPwqAH-26" value="&lt;font style=&quot;font-size: 16px;&quot;&gt;1&lt;/font&gt;" style="resizable=0;html=1;whiteSpace=wrap;align=right;verticalAlign=bottom;fontSize=16;shadow=0;" parent="kJq4WHonTFXw_2QPwqAH-25" connectable="0" vertex="1">
          <mxGeometry x="1" relative="1" as="geometry">
            <mxPoint y="29" as="offset" />
          </mxGeometry>
        </mxCell>
        <mxCell id="kJq4WHonTFXw_2QPwqAH-27" value="" style="endArrow=none;html=1;rounded=0;exitX=0.5;exitY=1;exitDx=0;exitDy=0;entryX=0.5;entryY=0;entryDx=0;entryDy=0;fontSize=16;shadow=0;shape=link;" parent="1" source="Lpcm2hX8-Bi3e6Y-f05t-5" target="kJq4WHonTFXw_2QPwqAH-21" edge="1">
          <mxGeometry relative="1" as="geometry">
            <mxPoint x="-2276" y="-4092.5" as="sourcePoint" />
            <mxPoint x="-2116" y="-4092.5" as="targetPoint" />
          </mxGeometry>
        </mxCell>
        <mxCell id="kJq4WHonTFXw_2QPwqAH-28" value="N" style="resizable=0;html=1;whiteSpace=wrap;align=right;verticalAlign=bottom;fontSize=16;shadow=0;" parent="1" connectable="0" vertex="1">
          <mxGeometry x="-2839.9974297438503" y="-4080.0017990511606" as="geometry">
            <mxPoint x="37" y="21" as="offset" />
          </mxGeometry>
        </mxCell>
        <mxCell id="kJq4WHonTFXw_2QPwqAH-29" value="" style="endArrow=none;html=1;rounded=0;entryX=0.5;entryY=0;entryDx=0;entryDy=0;fontSize=16;shadow=0;" parent="1" source="jeDREkuSJJcBFd6zUcUg-6" target="kJq4WHonTFXw_2QPwqAH-22" edge="1">
          <mxGeometry relative="1" as="geometry">
            <mxPoint x="-1970" y="-4532.5" as="sourcePoint" />
            <mxPoint x="-2836" y="-4165.17" as="targetPoint" />
          </mxGeometry>
        </mxCell>
        <mxCell id="OKTP_olpNpHGMenbHG-b-1" value="" style="endArrow=none;html=1;rounded=0;exitX=0.5;exitY=0;exitDx=0;exitDy=0;entryX=0.5;entryY=1;entryDx=0;entryDy=0;fontSize=16;shadow=0;shape=link;" parent="1" source="g4j1WKEGXEMlScfUfIoM-33" target="kJq4WHonTFXw_2QPwqAH-22" edge="1">
          <mxGeometry relative="1" as="geometry">
            <mxPoint x="-2247" y="-3799.17" as="sourcePoint" />
            <mxPoint x="-2836" y="-4066.17" as="targetPoint" />
          </mxGeometry>
        </mxCell>
        <mxCell id="OKTP_olpNpHGMenbHG-b-2" value="&lt;font style=&quot;font-size: 16px;&quot;&gt;1&lt;/font&gt;" style="resizable=0;html=1;whiteSpace=wrap;align=right;verticalAlign=bottom;fontSize=16;shadow=0;" parent="OKTP_olpNpHGMenbHG-b-1" connectable="0" vertex="1">
          <mxGeometry x="1" relative="1" as="geometry">
            <mxPoint y="29" as="offset" />
          </mxGeometry>
        </mxCell>
        <mxCell id="OKTP_olpNpHGMenbHG-b-3" value="" style="endArrow=none;html=1;rounded=0;exitX=0.75;exitY=0;exitDx=0;exitDy=0;entryX=0.5;entryY=1;entryDx=0;entryDy=0;fontSize=16;shadow=0;shape=link;" parent="1" source="g4j1WKEGXEMlScfUfIoM-33" target="kJq4WHonTFXw_2QPwqAH-20" edge="1">
          <mxGeometry relative="1" as="geometry">
            <mxPoint x="-2210" y="-3872.8199999999997" as="sourcePoint" />
            <mxPoint x="-2616" y="-4141.82" as="targetPoint" />
          </mxGeometry>
        </mxCell>
        <mxCell id="OKTP_olpNpHGMenbHG-b-4" value="&lt;font style=&quot;font-size: 16px;&quot;&gt;1&lt;/font&gt;" style="resizable=0;html=1;whiteSpace=wrap;align=right;verticalAlign=bottom;fontSize=16;shadow=0;" parent="OKTP_olpNpHGMenbHG-b-3" connectable="0" vertex="1">
          <mxGeometry x="1" relative="1" as="geometry">
            <mxPoint y="-98" as="offset" />
          </mxGeometry>
        </mxCell>
        <mxCell id="OKTP_olpNpHGMenbHG-b-5" value="" style="endArrow=none;html=1;rounded=0;entryX=0.5;entryY=0;entryDx=0;entryDy=0;exitX=0.25;exitY=1;exitDx=0;exitDy=0;fontSize=16;shadow=0;" parent="1" source="Lpcm2hX8-Bi3e6Y-f05t-6" target="kJq4WHonTFXw_2QPwqAH-20" edge="1">
          <mxGeometry relative="1" as="geometry">
            <mxPoint x="-1688" y="-4460.17" as="sourcePoint" />
            <mxPoint x="-2353" y="-4125.17" as="targetPoint" />
          </mxGeometry>
        </mxCell>
        <mxCell id="OKTP_olpNpHGMenbHG-b-6" value="" style="endArrow=none;html=1;rounded=0;exitX=1;exitY=0;exitDx=0;exitDy=0;entryX=0;entryY=0.5;entryDx=0;entryDy=0;fontSize=16;shadow=0;shape=link;" parent="1" source="g4j1WKEGXEMlScfUfIoM-33" target="kJq4WHonTFXw_2QPwqAH-18" edge="1">
          <mxGeometry relative="1" as="geometry">
            <mxPoint x="-2152" y="-3872.8199999999997" as="sourcePoint" />
            <mxPoint x="-1566" y="-4000.8199999999997" as="targetPoint" />
          </mxGeometry>
        </mxCell>
        <mxCell id="OKTP_olpNpHGMenbHG-b-7" value="&lt;font style=&quot;font-size: 16px;&quot;&gt;N&lt;/font&gt;" style="resizable=0;html=1;whiteSpace=wrap;align=right;verticalAlign=bottom;fontSize=16;shadow=0;" parent="OKTP_olpNpHGMenbHG-b-6" connectable="0" vertex="1">
          <mxGeometry x="1" relative="1" as="geometry">
            <mxPoint x="14" y="31" as="offset" />
          </mxGeometry>
        </mxCell>
        <mxCell id="OKTP_olpNpHGMenbHG-b-8" value="" style="endArrow=none;html=1;rounded=0;exitX=1;exitY=0.5;exitDx=0;exitDy=0;entryX=0.25;entryY=1;entryDx=0;entryDy=0;fontSize=16;shadow=0;" parent="1" source="kJq4WHonTFXw_2QPwqAH-18" target="g4j1WKEGXEMlScfUfIoM-24" edge="1">
          <mxGeometry relative="1" as="geometry">
            <mxPoint x="-1556" y="-4026.17" as="sourcePoint" />
            <mxPoint x="-1011" y="-4125.17" as="targetPoint" />
          </mxGeometry>
        </mxCell>
        <mxCell id="OKTP_olpNpHGMenbHG-b-9" value="&lt;font style=&quot;font-size: 16px;&quot;&gt;1&lt;/font&gt;" style="resizable=0;html=1;whiteSpace=wrap;align=right;verticalAlign=bottom;fontSize=16;shadow=0;" parent="OKTP_olpNpHGMenbHG-b-8" connectable="0" vertex="1">
          <mxGeometry x="1" relative="1" as="geometry">
            <mxPoint x="-202" y="191" as="offset" />
          </mxGeometry>
        </mxCell>
        <mxCell id="OKTP_olpNpHGMenbHG-b-14" value="&lt;font style=&quot;font-size: 16px;&quot;&gt;N&lt;/font&gt;" style="resizable=0;html=1;whiteSpace=wrap;align=right;verticalAlign=bottom;fontSize=16;shadow=0;" parent="1" connectable="0" vertex="1">
          <mxGeometry x="-1669.7878430042015" y="-3922.8718605989725" as="geometry">
            <mxPoint x="-425" y="-60" as="offset" />
          </mxGeometry>
        </mxCell>
        <mxCell id="H3t56G8dr6_Rl36FYpE4-5" value="ADMIN" style="rounded=0;whiteSpace=wrap;html=1;fontSize=16;shadow=0;" parent="1" vertex="1">
          <mxGeometry x="-3230" y="-5065.5" width="120" height="40" as="geometry" />
        </mxCell>
        <mxCell id="OWGKT9oohetTBbXcena5-12" value="*Phone_Number" style="ellipse;whiteSpace=wrap;html=1;movable=1;resizable=1;rotatable=1;deletable=1;editable=1;locked=0;connectable=1;fontSize=16;shadow=0;" parent="1" vertex="1">
          <mxGeometry x="-2394" y="-5360" width="141" height="50" as="geometry" />
        </mxCell>
        <mxCell id="OWGKT9oohetTBbXcena5-13" value="" style="endArrow=none;html=1;rounded=0;" parent="1" source="Lpcm2hX8-Bi3e6Y-f05t-17" target="OWGKT9oohetTBbXcena5-12" edge="1">
          <mxGeometry relative="1" as="geometry">
            <mxPoint x="-2400" y="-4962.5" as="sourcePoint" />
            <mxPoint x="-2240" y="-4962.5" as="targetPoint" />
          </mxGeometry>
        </mxCell>
        <mxCell id="OWGKT9oohetTBbXcena5-14" value="&lt;div&gt;&lt;span style=&quot;background-color: initial;&quot;&gt;Password&lt;/span&gt;&lt;br&gt;&lt;/div&gt;" style="ellipse;whiteSpace=wrap;html=1;movable=1;resizable=1;rotatable=1;deletable=1;editable=1;locked=0;connectable=1;fontSize=16;shadow=0;" parent="1" vertex="1">
          <mxGeometry x="-2240" y="-5350" width="120" height="50" as="geometry" />
        </mxCell>
        <mxCell id="OWGKT9oohetTBbXcena5-15" value="" style="endArrow=none;html=1;rounded=0;" parent="1" source="OWGKT9oohetTBbXcena5-14" target="Lpcm2hX8-Bi3e6Y-f05t-17" edge="1">
          <mxGeometry relative="1" as="geometry">
            <mxPoint x="-2400" y="-4962.5" as="sourcePoint" />
            <mxPoint x="-2240" y="-4962.5" as="targetPoint" />
          </mxGeometry>
        </mxCell>
        <mxCell id="H3t56G8dr6_Rl36FYpE4-15" style="rounded=0;orthogonalLoop=1;jettySize=auto;html=1;entryX=0.5;entryY=0;entryDx=0;entryDy=0;endArrow=none;endFill=0;shape=link;" parent="1" source="OWGKT9oohetTBbXcena5-21" target="H3t56G8dr6_Rl36FYpE4-14" edge="1">
          <mxGeometry relative="1" as="geometry" />
        </mxCell>
        <mxCell id="OWGKT9oohetTBbXcena5-21" value="BUS OWNER" style="rounded=0;whiteSpace=wrap;html=1;fontSize=16;shadow=0;" parent="1" vertex="1">
          <mxGeometry x="-1325.29" y="-5032.5" width="120" height="40" as="geometry" />
        </mxCell>
        <mxCell id="OWGKT9oohetTBbXcena5-24" value="" style="endArrow=none;html=1;rounded=0;" parent="1" source="OWGKT9oohetTBbXcena5-21" target="OWGKT9oohetTBbXcena5-23" edge="1">
          <mxGeometry relative="1" as="geometry">
            <mxPoint x="-1889.79" y="-4952.5" as="sourcePoint" />
            <mxPoint x="-1729.79" y="-4952.5" as="targetPoint" />
          </mxGeometry>
        </mxCell>
        <mxCell id="H3t56G8dr6_Rl36FYpE4-11" value="" style="endArrow=none;html=1;rounded=0;entryX=0;entryY=0.5;entryDx=0;entryDy=0;" parent="1" source="jeDREkuSJJcBFd6zUcUg-23" target="OWGKT9oohetTBbXcena5-21" edge="1">
          <mxGeometry width="50" height="50" relative="1" as="geometry">
            <mxPoint x="-2138.5" y="-5078.5" as="sourcePoint" />
            <mxPoint x="-2067.789321881345" y="-5128.5" as="targetPoint" />
          </mxGeometry>
        </mxCell>
        <mxCell id="H3t56G8dr6_Rl36FYpE4-13" value="" style="endArrow=none;html=1;rounded=0;entryX=1;entryY=0.5;entryDx=0;entryDy=0;entryPerimeter=0;" parent="1" source="oJ5dwSXZvKnoDjy4rw64-24" target="jeDREkuSJJcBFd6zUcUg-23" edge="1">
          <mxGeometry width="50" height="50" relative="1" as="geometry">
            <mxPoint x="-2139" y="-5125.5" as="sourcePoint" />
            <mxPoint x="-1605" y="-5012.5" as="targetPoint" />
          </mxGeometry>
        </mxCell>
        <mxCell id="jeDREkuSJJcBFd6zUcUg-23" value="" style="shape=requiredInterface;html=1;verticalLabelPosition=bottom;sketch=0;rotation=15;fontSize=16;shadow=0;" parent="1" vertex="1">
          <mxGeometry x="-1868" y="-5090" width="10" height="20" as="geometry" />
        </mxCell>
        <mxCell id="OWGKT9oohetTBbXcena5-26" value="First_Name" style="ellipse;whiteSpace=wrap;html=1;movable=1;resizable=1;rotatable=1;deletable=1;editable=1;locked=0;connectable=1;fontSize=16;shadow=0;" parent="1" vertex="1">
          <mxGeometry x="-1911" y="-5380" width="120" height="50" as="geometry" />
        </mxCell>
        <mxCell id="OWGKT9oohetTBbXcena5-27" value="" style="endArrow=none;html=1;rounded=0;" parent="1" source="Lpcm2hX8-Bi3e6Y-f05t-20" target="OWGKT9oohetTBbXcena5-26" edge="1">
          <mxGeometry relative="1" as="geometry">
            <mxPoint x="-2130" y="-5042.5" as="sourcePoint" />
            <mxPoint x="-1970" y="-5042.5" as="targetPoint" />
          </mxGeometry>
        </mxCell>
        <mxCell id="OWGKT9oohetTBbXcena5-35" value="&lt;font style=&quot;font-size: 16px;&quot;&gt;User_Type&lt;/font&gt;" style="ellipse;shape=doubleEllipse;margin=3;whiteSpace=wrap;html=1;align=center;" parent="1" vertex="1">
          <mxGeometry x="-2480" y="-5292.5" width="130" height="57.5" as="geometry" />
        </mxCell>
        <mxCell id="OWGKT9oohetTBbXcena5-44" value="" style="endArrow=none;html=1;rounded=0;" parent="1" source="jeDREkuSJJcBFd6zUcUg-6" target="gPpVuo-BLIe6btwiKGSo-1" edge="1">
          <mxGeometry relative="1" as="geometry">
            <mxPoint x="-2454" y="-4611.5" as="sourcePoint" />
            <mxPoint x="-2310.7905494694546" y="-4755.609426653036" as="targetPoint" />
          </mxGeometry>
        </mxCell>
        <mxCell id="OWGKT9oohetTBbXcena5-45" value="&lt;font style=&quot;font-size: 16px;&quot;&gt;*NIC (NULL)&lt;/font&gt;" style="ellipse;whiteSpace=wrap;html=1;fontSize=16;shadow=0;" parent="1" vertex="1">
          <mxGeometry x="-1140" y="-5000" width="164.71" height="53.5" as="geometry" />
        </mxCell>
        <mxCell id="OWGKT9oohetTBbXcena5-46" value="" style="endArrow=none;html=1;rounded=0;" parent="1" source="OWGKT9oohetTBbXcena5-21" target="OWGKT9oohetTBbXcena5-45" edge="1">
          <mxGeometry relative="1" as="geometry">
            <mxPoint x="-1990" y="-4902.5" as="sourcePoint" />
            <mxPoint x="-1830" y="-4902.5" as="targetPoint" />
          </mxGeometry>
        </mxCell>
        <mxCell id="H3t56G8dr6_Rl36FYpE4-14" value="&lt;font style=&quot;font-size: 16px;&quot;&gt;Owned By&lt;/font&gt;" style="rhombus;whiteSpace=wrap;html=1;" parent="1" vertex="1">
          <mxGeometry x="-1325.29" y="-4627.5" width="130.5" height="111" as="geometry" />
        </mxCell>
        <mxCell id="H3t56G8dr6_Rl36FYpE4-17" value="" style="endArrow=none;html=1;rounded=0;exitX=0.5;exitY=1;exitDx=0;exitDy=0;shape=link;" parent="1" source="H3t56G8dr6_Rl36FYpE4-14" target="Lpcm2hX8-Bi3e6Y-f05t-6" edge="1">
          <mxGeometry width="50" height="50" relative="1" as="geometry">
            <mxPoint x="-1651.2106781186549" y="-4533.5" as="sourcePoint" />
            <mxPoint x="-1890" y="-4252.5" as="targetPoint" />
          </mxGeometry>
        </mxCell>
        <mxCell id="OWGKT9oohetTBbXcena5-23" value="&lt;font style=&quot;font-size: 16px;&quot;&gt;Vehical_Reg_No&lt;/font&gt;" style="ellipse;shape=doubleEllipse;margin=3;whiteSpace=wrap;html=1;align=center;" parent="1" vertex="1">
          <mxGeometry x="-1230" y="-4930" width="150" height="60" as="geometry" />
        </mxCell>
        <mxCell id="4cXPYlhImBxXiok_q_9t-1" value="&lt;font style=&quot;font-size: 16px;&quot;&gt;N&lt;/font&gt;" style="resizable=0;html=1;whiteSpace=wrap;align=right;verticalAlign=bottom;fontSize=16;shadow=0;" parent="1" connectable="0" vertex="1">
          <mxGeometry x="-1248.002584622024" y="-4491.160102375993" as="geometry" />
        </mxCell>
        <mxCell id="4cXPYlhImBxXiok_q_9t-2" value="&lt;font style=&quot;font-size: 16px;&quot;&gt;1&lt;/font&gt;" style="resizable=0;html=1;whiteSpace=wrap;align=right;verticalAlign=bottom;fontSize=16;shadow=0;" parent="1" connectable="0" vertex="1">
          <mxGeometry x="-1238.002584622024" y="-4632.500102375993" as="geometry" />
        </mxCell>
        <mxCell id="4cXPYlhImBxXiok_q_9t-4" value="To" style="ellipse;whiteSpace=wrap;html=1;fontSize=16;shadow=0;" parent="1" vertex="1">
          <mxGeometry x="-2710" y="-4303.17" width="120" height="50" as="geometry" />
        </mxCell>
        <mxCell id="4cXPYlhImBxXiok_q_9t-5" value="" style="endArrow=none;html=1;rounded=0;" parent="1" source="Lpcm2hX8-Bi3e6Y-f05t-5" target="4cXPYlhImBxXiok_q_9t-4" edge="1">
          <mxGeometry relative="1" as="geometry">
            <mxPoint x="-2957" y="-4252" as="sourcePoint" />
            <mxPoint x="-2797" y="-4252" as="targetPoint" />
          </mxGeometry>
        </mxCell>
        <mxCell id="4cXPYlhImBxXiok_q_9t-6" value="From" style="ellipse;whiteSpace=wrap;html=1;fontSize=16;shadow=0;" parent="1" vertex="1">
          <mxGeometry x="-2710" y="-4220.5" width="120" height="50" as="geometry" />
        </mxCell>
        <mxCell id="4cXPYlhImBxXiok_q_9t-7" value="" style="endArrow=none;html=1;rounded=0;" parent="1" source="Lpcm2hX8-Bi3e6Y-f05t-5" target="4cXPYlhImBxXiok_q_9t-6" edge="1">
          <mxGeometry relative="1" as="geometry">
            <mxPoint x="-2957" y="-4252" as="sourcePoint" />
            <mxPoint x="-2797" y="-4252" as="targetPoint" />
          </mxGeometry>
        </mxCell>
        <mxCell id="4cXPYlhImBxXiok_q_9t-9" value="&lt;font style=&quot;font-size: 16px;&quot;&gt;N&lt;/font&gt;" style="resizable=0;html=1;whiteSpace=wrap;align=right;verticalAlign=bottom;fontSize=16;shadow=0;" parent="1" connectable="0" vertex="1">
          <mxGeometry x="-2320.99964428322" y="-4236.672008372066" as="geometry" />
        </mxCell>
        <mxCell id="FZexEdawWe4SaI0-72cd-1" value="Ticket Price" style="ellipse;whiteSpace=wrap;html=1;fontSize=16;shadow=0;dashed=1;dashPattern=8 8;" parent="1" vertex="1">
          <mxGeometry x="-2540" y="-4307.49" width="146" height="58.32" as="geometry" />
        </mxCell>
        <mxCell id="FZexEdawWe4SaI0-72cd-2" value="" style="endArrow=none;html=1;rounded=0;exitX=0;exitY=0.5;exitDx=0;exitDy=0;fontSize=16;shadow=0;" parent="1" source="FZexEdawWe4SaI0-72cd-1" target="4cXPYlhImBxXiok_q_9t-4" edge="1">
          <mxGeometry relative="1" as="geometry">
            <mxPoint x="-2343.900400140783" y="-4299.362059201903" as="sourcePoint" />
            <mxPoint x="-2621" y="-4281.02" as="targetPoint" />
            <Array as="points" />
          </mxGeometry>
        </mxCell>
        <mxCell id="gPpVuo-BLIe6btwiKGSo-1" value="&lt;font style=&quot;font-size: 16px;&quot;&gt;*NIC&lt;/font&gt;" style="ellipse;whiteSpace=wrap;html=1;fontSize=16;shadow=0;" parent="1" vertex="1">
          <mxGeometry x="-2360" y="-4803.23" width="150" height="55" as="geometry" />
        </mxCell>
        <mxCell id="gPpVuo-BLIe6btwiKGSo-9" value="" style="endArrow=none;html=1;rounded=0;" parent="1" source="jeDREkuSJJcBFd6zUcUg-6" target="gPpVuo-BLIe6btwiKGSo-10" edge="1">
          <mxGeometry relative="1" as="geometry">
            <mxPoint x="-2020" y="-4817" as="sourcePoint" />
            <mxPoint x="-1945.5927060653325" y="-4807.649826945749" as="targetPoint" />
          </mxGeometry>
        </mxCell>
        <mxCell id="gPpVuo-BLIe6btwiKGSo-10" value="&lt;font style=&quot;font-size: 16px;&quot;&gt;Role&lt;/font&gt;" style="ellipse;shape=doubleEllipse;margin=3;whiteSpace=wrap;html=1;align=center;" parent="1" vertex="1">
          <mxGeometry x="-1970" y="-4840" width="152" height="50" as="geometry" />
        </mxCell>
        <mxCell id="gPpVuo-BLIe6btwiKGSo-11" value="Username" style="ellipse;whiteSpace=wrap;html=1;movable=1;resizable=1;rotatable=1;deletable=1;editable=1;locked=0;connectable=1;fontSize=16;shadow=0;" parent="1" vertex="1">
          <mxGeometry x="-1460" y="-4937.5" width="120" height="50" as="geometry" />
        </mxCell>
        <mxCell id="gPpVuo-BLIe6btwiKGSo-12" value="" style="endArrow=none;html=1;rounded=0;" parent="1" source="OWGKT9oohetTBbXcena5-21" target="gPpVuo-BLIe6btwiKGSo-11" edge="1">
          <mxGeometry relative="1" as="geometry">
            <mxPoint x="-1208" y="-5022" as="sourcePoint" />
            <mxPoint x="-1119" y="-5061" as="targetPoint" />
          </mxGeometry>
        </mxCell>
        <mxCell id="gPpVuo-BLIe6btwiKGSo-13" value="TRANSACTION" style="rounded=0;whiteSpace=wrap;html=1;fontSize=16;shadow=0;" parent="1" vertex="1">
          <mxGeometry x="-3485.5" y="-4604.17" width="145.5" height="40" as="geometry" />
        </mxCell>
        <mxCell id="gPpVuo-BLIe6btwiKGSo-14" value="Amount" style="ellipse;whiteSpace=wrap;html=1;fontSize=16;shadow=0;" parent="1" vertex="1">
          <mxGeometry x="-3660" y="-4638.67" width="120" height="50" as="geometry" />
        </mxCell>
        <mxCell id="gPpVuo-BLIe6btwiKGSo-15" value="&lt;div style=&quot;font-size: 16px;&quot;&gt;Time &amp;amp; Date&lt;/div&gt;" style="ellipse;whiteSpace=wrap;html=1;fontSize=16;shadow=0;" parent="1" vertex="1">
          <mxGeometry x="-3660" y="-4571.5" width="110" height="55" as="geometry" />
        </mxCell>
        <mxCell id="gPpVuo-BLIe6btwiKGSo-16" value="Ref. No." style="ellipse;whiteSpace=wrap;html=1;align=center;fontStyle=4;fontSize=16;shadow=0;" parent="1" vertex="1">
          <mxGeometry x="-3605.5" y="-4513.5" width="120" height="50" as="geometry" />
        </mxCell>
        <mxCell id="gPpVuo-BLIe6btwiKGSo-17" value="" style="endArrow=none;html=1;rounded=0;fontSize=16;shadow=0;" parent="1" source="gPpVuo-BLIe6btwiKGSo-16" target="gPpVuo-BLIe6btwiKGSo-13" edge="1">
          <mxGeometry relative="1" as="geometry">
            <mxPoint x="-3520.5" y="-4645.17" as="sourcePoint" />
            <mxPoint x="-3360.5" y="-4645.17" as="targetPoint" />
          </mxGeometry>
        </mxCell>
        <mxCell id="gPpVuo-BLIe6btwiKGSo-18" value="" style="endArrow=none;html=1;rounded=0;fontSize=16;shadow=0;" parent="1" source="gPpVuo-BLIe6btwiKGSo-15" target="gPpVuo-BLIe6btwiKGSo-13" edge="1">
          <mxGeometry relative="1" as="geometry">
            <mxPoint x="-3340.5" y="-4685.17" as="sourcePoint" />
            <mxPoint x="-3346" y="-4573.17" as="targetPoint" />
            <Array as="points" />
          </mxGeometry>
        </mxCell>
        <mxCell id="gPpVuo-BLIe6btwiKGSo-19" value="" style="endArrow=none;html=1;rounded=0;fontSize=16;shadow=0;" parent="1" source="gPpVuo-BLIe6btwiKGSo-14" target="gPpVuo-BLIe6btwiKGSo-13" edge="1">
          <mxGeometry relative="1" as="geometry">
            <mxPoint x="-3430.5" y="-4695.17" as="sourcePoint" />
            <mxPoint x="-3390.5" y="-4605.17" as="targetPoint" />
            <Array as="points" />
          </mxGeometry>
        </mxCell>
        <mxCell id="gPpVuo-BLIe6btwiKGSo-21" value="" style="endArrow=none;html=1;rounded=0;" parent="1" source="gPpVuo-BLIe6btwiKGSo-13" target="gPpVuo-BLIe6btwiKGSo-26" edge="1">
          <mxGeometry relative="1" as="geometry">
            <mxPoint x="-3550" y="-4622" as="sourcePoint" />
            <mxPoint x="-3322.3033566261493" y="-4643.932593504685" as="targetPoint" />
          </mxGeometry>
        </mxCell>
        <mxCell id="gPpVuo-BLIe6btwiKGSo-22" value="Date" style="ellipse;whiteSpace=wrap;html=1;fontSize=16;shadow=0;" parent="1" vertex="1">
          <mxGeometry x="-3760" y="-4480" width="120" height="50" as="geometry" />
        </mxCell>
        <mxCell id="gPpVuo-BLIe6btwiKGSo-23" value="" style="endArrow=none;html=1;rounded=0;" parent="1" source="gPpVuo-BLIe6btwiKGSo-15" target="gPpVuo-BLIe6btwiKGSo-22" edge="1">
          <mxGeometry relative="1" as="geometry">
            <mxPoint x="-3550" y="-4622" as="sourcePoint" />
            <mxPoint x="-3390" y="-4622" as="targetPoint" />
          </mxGeometry>
        </mxCell>
        <mxCell id="gPpVuo-BLIe6btwiKGSo-26" value="Type" style="ellipse;whiteSpace=wrap;html=1;fontSize=16;shadow=0;" parent="1" vertex="1">
          <mxGeometry x="-3285.5" y="-4657.5" width="120" height="50" as="geometry" />
        </mxCell>
        <mxCell id="gPpVuo-BLIe6btwiKGSo-27" value="Top-Up" style="rhombus;whiteSpace=wrap;html=1;fontSize=16;shadow=0;" parent="1" vertex="1">
          <mxGeometry x="-3238.15" y="-4880" width="120" height="99" as="geometry" />
        </mxCell>
        <mxCell id="gPpVuo-BLIe6btwiKGSo-28" value="Passenger_ID (F)" style="ellipse;whiteSpace=wrap;html=1;fontSize=16;shadow=0;" parent="1" vertex="1">
          <mxGeometry x="-3030" y="-4110.25" width="160" height="60.5" as="geometry" />
        </mxCell>
        <mxCell id="gPpVuo-BLIe6btwiKGSo-29" value="" style="endArrow=none;html=1;rounded=0;" parent="1" source="Lpcm2hX8-Bi3e6Y-f05t-5" target="gPpVuo-BLIe6btwiKGSo-28" edge="1">
          <mxGeometry relative="1" as="geometry">
            <mxPoint x="-2762" y="-4202" as="sourcePoint" />
            <mxPoint x="-2720" y="-4201" as="targetPoint" />
          </mxGeometry>
        </mxCell>
        <mxCell id="gPpVuo-BLIe6btwiKGSo-31" value="Payment" style="rhombus;whiteSpace=wrap;html=1;fontSize=16;shadow=0;" parent="1" vertex="1">
          <mxGeometry x="-3300" y="-4381.99" width="120" height="99" as="geometry" />
        </mxCell>
        <mxCell id="gPpVuo-BLIe6btwiKGSo-32" value="" style="endArrow=none;html=1;rounded=0;entryX=0;entryY=0.5;entryDx=0;entryDy=0;" parent="1" source="gPpVuo-BLIe6btwiKGSo-13" target="gPpVuo-BLIe6btwiKGSo-27" edge="1">
          <mxGeometry relative="1" as="geometry">
            <mxPoint x="-3320" y="-4560" as="sourcePoint" />
            <mxPoint x="-3160" y="-4560" as="targetPoint" />
          </mxGeometry>
        </mxCell>
        <mxCell id="gPpVuo-BLIe6btwiKGSo-33" value="" style="endArrow=none;html=1;rounded=0;entryX=0;entryY=0.5;entryDx=0;entryDy=0;" parent="1" source="gPpVuo-BLIe6btwiKGSo-13" target="gPpVuo-BLIe6btwiKGSo-31" edge="1">
          <mxGeometry relative="1" as="geometry">
            <mxPoint x="-3320" y="-4560" as="sourcePoint" />
            <mxPoint x="-3300" y="-4390" as="targetPoint" />
          </mxGeometry>
        </mxCell>
        <mxCell id="gPpVuo-BLIe6btwiKGSo-34" value="" style="endArrow=none;html=1;rounded=0;exitX=1;exitY=0.5;exitDx=0;exitDy=0;shape=link;" parent="1" source="gPpVuo-BLIe6btwiKGSo-31" target="Lpcm2hX8-Bi3e6Y-f05t-5" edge="1">
          <mxGeometry relative="1" as="geometry">
            <mxPoint x="-3320" y="-4560" as="sourcePoint" />
            <mxPoint x="-3160" y="-4560" as="targetPoint" />
          </mxGeometry>
        </mxCell>
        <mxCell id="gPpVuo-BLIe6btwiKGSo-35" value="" style="endArrow=none;html=1;rounded=0;exitX=1;exitY=0.5;exitDx=0;exitDy=0;" parent="1" source="gPpVuo-BLIe6btwiKGSo-27" target="Lpcm2hX8-Bi3e6Y-f05t-41" edge="1">
          <mxGeometry relative="1" as="geometry">
            <mxPoint x="-3320" y="-4560" as="sourcePoint" />
            <mxPoint x="-3160" y="-4560" as="targetPoint" />
          </mxGeometry>
        </mxCell>
        <mxCell id="gPpVuo-BLIe6btwiKGSo-36" value="1" style="resizable=0;html=1;whiteSpace=wrap;align=right;verticalAlign=bottom;fontSize=16;shadow=0;" parent="1" connectable="0" vertex="1">
          <mxGeometry x="-2769.5" y="-4789.996666666666" as="geometry">
            <mxPoint x="-339" y="-53" as="offset" />
          </mxGeometry>
        </mxCell>
        <mxCell id="gPpVuo-BLIe6btwiKGSo-37" value="N" style="resizable=0;html=1;whiteSpace=wrap;align=right;verticalAlign=bottom;fontSize=16;shadow=0;" parent="1" connectable="0" vertex="1">
          <mxGeometry x="-3260" y="-4830.496666666666" as="geometry" />
        </mxCell>
        <mxCell id="gPpVuo-BLIe6btwiKGSo-38" value="1" style="resizable=0;html=1;whiteSpace=wrap;align=right;verticalAlign=bottom;fontSize=16;shadow=0;" parent="1" connectable="0" vertex="1">
          <mxGeometry x="-2960" y="-4907.496666666666" as="geometry">
            <mxPoint y="710" as="offset" />
          </mxGeometry>
        </mxCell>
        <mxCell id="gPpVuo-BLIe6btwiKGSo-39" value="1" style="resizable=0;html=1;whiteSpace=wrap;align=right;verticalAlign=bottom;fontSize=16;shadow=0;" parent="1" connectable="0" vertex="1">
          <mxGeometry x="-2840" y="-4689.996666666666" as="geometry">
            <mxPoint x="-333" y="348" as="offset" />
          </mxGeometry>
        </mxCell>
        <mxCell id="gPpVuo-BLIe6btwiKGSo-41" value="Status" style="ellipse;whiteSpace=wrap;html=1;fontSize=16;shadow=0;" parent="1" vertex="1">
          <mxGeometry x="-3610" y="-4700" width="120" height="50" as="geometry" />
        </mxCell>
        <mxCell id="gPpVuo-BLIe6btwiKGSo-43" value="" style="endArrow=none;html=1;rounded=0;fontSize=16;shadow=0;" parent="1" source="gPpVuo-BLIe6btwiKGSo-41" target="gPpVuo-BLIe6btwiKGSo-13" edge="1">
          <mxGeometry relative="1" as="geometry">
            <mxPoint x="-3536" y="-4626" as="sourcePoint" />
            <mxPoint x="-3455" y="-4594" as="targetPoint" />
            <Array as="points" />
          </mxGeometry>
        </mxCell>
        <mxCell id="gPpVuo-BLIe6btwiKGSo-44" value="&lt;font style=&quot;font-size: 16px;&quot;&gt;Bank Account Number&lt;/font&gt;" style="ellipse;whiteSpace=wrap;html=1;fontSize=16;shadow=0;" parent="1" vertex="1">
          <mxGeometry x="-990" y="-5154.75" width="214.71" height="52.5" as="geometry" />
        </mxCell>
        <mxCell id="gPpVuo-BLIe6btwiKGSo-45" value="&lt;font style=&quot;font-size: 16px;&quot;&gt;Account&lt;/font&gt;" style="ellipse;whiteSpace=wrap;html=1;fontSize=16;shadow=0;" parent="1" vertex="1">
          <mxGeometry x="-1159.9999999999998" y="-5133.25" width="135.29" height="56.5" as="geometry" />
        </mxCell>
        <mxCell id="gPpVuo-BLIe6btwiKGSo-46" value="&lt;font style=&quot;font-size: 16px;&quot;&gt;&lt;b&gt;Branch&lt;/b&gt;&lt;/font&gt;" style="ellipse;whiteSpace=wrap;html=1;fontSize=16;shadow=0;" parent="1" vertex="1">
          <mxGeometry x="-1050.35" y="-5252.5" width="130" height="62.5" as="geometry" />
        </mxCell>
        <mxCell id="gPpVuo-BLIe6btwiKGSo-47" value="&lt;font style=&quot;font-size: 16px;&quot;&gt;&lt;b&gt;Beneficiary&amp;nbsp;&lt;/b&gt;&lt;/font&gt;" style="ellipse;whiteSpace=wrap;html=1;fontSize=16;shadow=0;" parent="1" vertex="1">
          <mxGeometry x="-1210" y="-5242.5" width="130" height="62.5" as="geometry" />
        </mxCell>
        <mxCell id="gPpVuo-BLIe6btwiKGSo-49" value="" style="endArrow=none;html=1;rounded=0;" parent="1" source="gPpVuo-BLIe6btwiKGSo-45" target="gPpVuo-BLIe6btwiKGSo-44" edge="1">
          <mxGeometry relative="1" as="geometry">
            <mxPoint x="-1332.35" y="-5452.5" as="sourcePoint" />
            <mxPoint x="-1172.35" y="-5452.5" as="targetPoint" />
          </mxGeometry>
        </mxCell>
        <mxCell id="gPpVuo-BLIe6btwiKGSo-50" value="" style="endArrow=none;html=1;rounded=0;" parent="1" source="gPpVuo-BLIe6btwiKGSo-45" target="gPpVuo-BLIe6btwiKGSo-46" edge="1">
          <mxGeometry relative="1" as="geometry">
            <mxPoint x="-1332.35" y="-5452.5" as="sourcePoint" />
            <mxPoint x="-1172.35" y="-5452.5" as="targetPoint" />
          </mxGeometry>
        </mxCell>
        <mxCell id="gPpVuo-BLIe6btwiKGSo-51" value="" style="endArrow=none;html=1;rounded=0;" parent="1" source="gPpVuo-BLIe6btwiKGSo-45" target="gPpVuo-BLIe6btwiKGSo-47" edge="1">
          <mxGeometry relative="1" as="geometry">
            <mxPoint x="-1332.35" y="-5452.5" as="sourcePoint" />
            <mxPoint x="-1172.35" y="-5452.5" as="targetPoint" />
          </mxGeometry>
        </mxCell>
        <mxCell id="gPpVuo-BLIe6btwiKGSo-52" value="" style="endArrow=none;html=1;rounded=0;" parent="1" source="gPpVuo-BLIe6btwiKGSo-45" target="OWGKT9oohetTBbXcena5-21" edge="1">
          <mxGeometry relative="1" as="geometry">
            <mxPoint x="-1310" y="-5360" as="sourcePoint" />
            <mxPoint x="-1150" y="-5360" as="targetPoint" />
          </mxGeometry>
        </mxCell>
        <mxCell id="gPpVuo-BLIe6btwiKGSo-53" value="&lt;font style=&quot;font-size: 16px;&quot;&gt;&lt;b&gt;Bank&lt;/b&gt;&lt;/font&gt;" style="ellipse;whiteSpace=wrap;html=1;fontSize=16;shadow=0;" parent="1" vertex="1">
          <mxGeometry x="-1024.71" y="-5076.75" width="130" height="62.5" as="geometry" />
        </mxCell>
        <mxCell id="gPpVuo-BLIe6btwiKGSo-54" value="" style="endArrow=none;html=1;rounded=0;" parent="1" source="gPpVuo-BLIe6btwiKGSo-53" target="gPpVuo-BLIe6btwiKGSo-45" edge="1">
          <mxGeometry relative="1" as="geometry">
            <mxPoint x="-1332.35" y="-5452.5" as="sourcePoint" />
            <mxPoint x="-1172.35" y="-5452.5" as="targetPoint" />
          </mxGeometry>
        </mxCell>
        <mxCell id="WvRrBKGvaqcdKMTHuGGJ-53" value="Pay" style="rhombus;whiteSpace=wrap;html=1;fontSize=16;shadow=0;" parent="1" vertex="1">
          <mxGeometry x="-3555.5" y="-4880.000000000001" width="120" height="99" as="geometry" />
        </mxCell>
        <mxCell id="WvRrBKGvaqcdKMTHuGGJ-57" value="" style="endArrow=none;html=1;rounded=0;entryX=0;entryY=0.5;entryDx=0;entryDy=0;" parent="1" source="OWGKT9oohetTBbXcena5-21" target="WvRrBKGvaqcdKMTHuGGJ-53" edge="1">
          <mxGeometry relative="1" as="geometry">
            <mxPoint x="-1124" y="-5073" as="sourcePoint" />
            <mxPoint x="-1350" y="-5189.64" as="targetPoint" />
            <Array as="points">
              <mxPoint x="-1270" y="-5440" />
              <mxPoint x="-3720" y="-5440" />
              <mxPoint x="-3720" y="-4831" />
            </Array>
          </mxGeometry>
        </mxCell>
        <mxCell id="gPpVuo-BLIe6btwiKGSo-55" value="Status" style="ellipse;whiteSpace=wrap;html=1;fontSize=16;shadow=0;" parent="1" vertex="1">
          <mxGeometry x="-2810" y="-4357.49" width="120" height="50" as="geometry" />
        </mxCell>
        <mxCell id="gPpVuo-BLIe6btwiKGSo-56" value="" style="endArrow=none;html=1;rounded=0;" parent="1" source="Lpcm2hX8-Bi3e6Y-f05t-5" target="gPpVuo-BLIe6btwiKGSo-55" edge="1">
          <mxGeometry relative="1" as="geometry">
            <mxPoint x="-2782" y="-4224" as="sourcePoint" />
            <mxPoint x="-2699" y="-4266" as="targetPoint" />
          </mxGeometry>
        </mxCell>
        <mxCell id="3ZU64u64tnnPc62G4w3Q-1" value="User_ID (F)" style="ellipse;whiteSpace=wrap;html=1;fontSize=16;shadow=0;" parent="1" vertex="1">
          <mxGeometry x="-3500" y="-4463.5" width="120" height="50" as="geometry" />
        </mxCell>
        <mxCell id="3ZU64u64tnnPc62G4w3Q-2" value="" style="endArrow=none;html=1;rounded=0;" parent="1" source="gPpVuo-BLIe6btwiKGSo-13" target="3ZU64u64tnnPc62G4w3Q-1" edge="1">
          <mxGeometry relative="1" as="geometry">
            <mxPoint x="-3420" y="-4584" as="sourcePoint" />
            <mxPoint x="-3378" y="-4653" as="targetPoint" />
          </mxGeometry>
        </mxCell>
        <mxCell id="3ZU64u64tnnPc62G4w3Q-3" value="Transaction_ID" style="ellipse;whiteSpace=wrap;html=1;fontSize=16;shadow=0;" parent="1" vertex="1">
          <mxGeometry x="-2780" y="-4146.17" width="170" height="66.17" as="geometry" />
        </mxCell>
        <mxCell id="3ZU64u64tnnPc62G4w3Q-4" value="" style="endArrow=none;html=1;rounded=0;" parent="1" source="Lpcm2hX8-Bi3e6Y-f05t-5" target="3ZU64u64tnnPc62G4w3Q-3" edge="1">
          <mxGeometry relative="1" as="geometry">
            <mxPoint x="-2766" y="-4224" as="sourcePoint" />
            <mxPoint x="-2686" y="-4252" as="targetPoint" />
          </mxGeometry>
        </mxCell>
        <mxCell id="3ZU64u64tnnPc62G4w3Q-5" value="Time" style="ellipse;whiteSpace=wrap;html=1;fontSize=16;shadow=0;" parent="1" vertex="1">
          <mxGeometry x="-3820" y="-4553.5" width="120" height="49" as="geometry" />
        </mxCell>
        <mxCell id="3ZU64u64tnnPc62G4w3Q-6" value="" style="endArrow=none;html=1;rounded=0;" parent="1" source="gPpVuo-BLIe6btwiKGSo-15" target="3ZU64u64tnnPc62G4w3Q-5" edge="1">
          <mxGeometry relative="1" as="geometry">
            <mxPoint x="-3621" y="-4510" as="sourcePoint" />
            <mxPoint x="-3666" y="-4468" as="targetPoint" />
          </mxGeometry>
        </mxCell>
        <mxCell id="3ZU64u64tnnPc62G4w3Q-7" value="&lt;font style=&quot;font-size: 16px;&quot;&gt;Bank Account Number&lt;/font&gt;" style="ellipse;whiteSpace=wrap;html=1;fontSize=16;shadow=0;" parent="1" vertex="1">
          <mxGeometry x="-3285.5" y="-5343.25" width="214.71" height="52.5" as="geometry" />
        </mxCell>
        <mxCell id="3ZU64u64tnnPc62G4w3Q-8" value="&lt;font style=&quot;font-size: 16px;&quot;&gt;Account&lt;/font&gt;" style="ellipse;whiteSpace=wrap;html=1;fontSize=16;shadow=0;" parent="1" vertex="1">
          <mxGeometry x="-3308.93" y="-5238" width="135.29" height="56.5" as="geometry" />
        </mxCell>
        <mxCell id="3ZU64u64tnnPc62G4w3Q-9" value="&lt;font style=&quot;font-size: 16px;&quot;&gt;&lt;span&gt;Branch&lt;/span&gt;&lt;/font&gt;" style="ellipse;whiteSpace=wrap;html=1;fontSize=16;shadow=0;fontStyle=0" parent="1" vertex="1">
          <mxGeometry x="-3485.4999999999995" y="-5237.89" width="130" height="62.5" as="geometry" />
        </mxCell>
        <mxCell id="3ZU64u64tnnPc62G4w3Q-10" value="&lt;font style=&quot;font-size: 16px;&quot;&gt;&lt;span&gt;Beneficiary&amp;nbsp;&lt;/span&gt;&lt;/font&gt;" style="ellipse;whiteSpace=wrap;html=1;fontSize=16;shadow=0;fontStyle=0" parent="1" vertex="1">
          <mxGeometry x="-3430.5" y="-5161.75" width="130" height="62.5" as="geometry" />
        </mxCell>
        <mxCell id="3ZU64u64tnnPc62G4w3Q-11" value="" style="endArrow=none;html=1;rounded=0;" parent="1" source="3ZU64u64tnnPc62G4w3Q-8" target="3ZU64u64tnnPc62G4w3Q-7" edge="1">
          <mxGeometry relative="1" as="geometry">
            <mxPoint x="-3481.2799999999997" y="-5557.25" as="sourcePoint" />
            <mxPoint x="-3321.2799999999997" y="-5557.25" as="targetPoint" />
          </mxGeometry>
        </mxCell>
        <mxCell id="3ZU64u64tnnPc62G4w3Q-12" value="" style="endArrow=none;html=1;rounded=0;" parent="1" source="3ZU64u64tnnPc62G4w3Q-8" target="3ZU64u64tnnPc62G4w3Q-9" edge="1">
          <mxGeometry relative="1" as="geometry">
            <mxPoint x="-3481.2799999999997" y="-5557.25" as="sourcePoint" />
            <mxPoint x="-3321.2799999999997" y="-5557.25" as="targetPoint" />
          </mxGeometry>
        </mxCell>
        <mxCell id="3ZU64u64tnnPc62G4w3Q-13" value="" style="endArrow=none;html=1;rounded=0;" parent="1" source="3ZU64u64tnnPc62G4w3Q-8" target="3ZU64u64tnnPc62G4w3Q-10" edge="1">
          <mxGeometry relative="1" as="geometry">
            <mxPoint x="-3481.2799999999997" y="-5557.25" as="sourcePoint" />
            <mxPoint x="-3321.2799999999997" y="-5557.25" as="targetPoint" />
          </mxGeometry>
        </mxCell>
        <mxCell id="3ZU64u64tnnPc62G4w3Q-14" value="" style="endArrow=none;html=1;rounded=0;" parent="1" source="3ZU64u64tnnPc62G4w3Q-8" target="H3t56G8dr6_Rl36FYpE4-5" edge="1">
          <mxGeometry relative="1" as="geometry">
            <mxPoint x="-3246.93" y="-5602.95" as="sourcePoint" />
            <mxPoint x="-3114.9726190476185" y="-5145.75" as="targetPoint" />
          </mxGeometry>
        </mxCell>
        <mxCell id="3ZU64u64tnnPc62G4w3Q-15" value="&lt;font style=&quot;font-size: 16px;&quot;&gt;&lt;span&gt;Bank&lt;/span&gt;&lt;/font&gt;" style="ellipse;whiteSpace=wrap;html=1;fontSize=16;shadow=0;fontStyle=0" parent="1" vertex="1">
          <mxGeometry x="-3435.5" y="-5318.64" width="130" height="62.5" as="geometry" />
        </mxCell>
        <mxCell id="3ZU64u64tnnPc62G4w3Q-16" value="" style="endArrow=none;html=1;rounded=0;" parent="1" source="3ZU64u64tnnPc62G4w3Q-15" target="3ZU64u64tnnPc62G4w3Q-8" edge="1">
          <mxGeometry relative="1" as="geometry">
            <mxPoint x="-3481.2799999999997" y="-5557.25" as="sourcePoint" />
            <mxPoint x="-3321.2799999999997" y="-5557.25" as="targetPoint" />
          </mxGeometry>
        </mxCell>
        <mxCell id="3ZU64u64tnnPc62G4w3Q-41" value="" style="endArrow=none;html=1;rounded=0;" parent="1" source="H3t56G8dr6_Rl36FYpE4-5" target="Lpcm2hX8-Bi3e6Y-f05t-17" edge="1">
          <mxGeometry relative="1" as="geometry">
            <mxPoint x="-2530" y="-4950" as="sourcePoint" />
            <mxPoint x="-2370" y="-4950" as="targetPoint" />
          </mxGeometry>
        </mxCell>
        <mxCell id="3ZU64u64tnnPc62G4w3Q-42" value="" style="shape=requiredInterface;html=1;verticalLabelPosition=bottom;sketch=0;rotation=-195;fontSize=16;shadow=0;" parent="1" vertex="1">
          <mxGeometry x="-2617" y="-5147.5" width="10" height="20" as="geometry" />
        </mxCell>
        <mxCell id="Hz84TYxn-jBb8q1pZPK5-2" value="" style="endArrow=none;html=1;rounded=0;entryX=0.5;entryY=1;entryDx=0;entryDy=0;" parent="1" source="gPpVuo-BLIe6btwiKGSo-13" target="WvRrBKGvaqcdKMTHuGGJ-53" edge="1">
          <mxGeometry width="50" height="50" relative="1" as="geometry">
            <mxPoint x="-3308.93" y="-4627.5" as="sourcePoint" />
            <mxPoint x="-3258.93" y="-4677.5" as="targetPoint" />
          </mxGeometry>
        </mxCell>
        <mxCell id="Hz84TYxn-jBb8q1pZPK5-3" value="" style="endArrow=none;html=1;rounded=0;exitX=0.5;exitY=0;exitDx=0;exitDy=0;entryX=0.5;entryY=1;entryDx=0;entryDy=0;" parent="1" source="WvRrBKGvaqcdKMTHuGGJ-53" target="H3t56G8dr6_Rl36FYpE4-5" edge="1">
          <mxGeometry width="50" height="50" relative="1" as="geometry">
            <mxPoint x="-2810" y="-4910" as="sourcePoint" />
            <mxPoint x="-2760" y="-4960" as="targetPoint" />
          </mxGeometry>
        </mxCell>
        <mxCell id="3ZU64u64tnnPc62G4w3Q-45" value="" style="endArrow=none;html=1;rounded=0;exitX=0.5;exitY=0;exitDx=0;exitDy=0;" parent="1" source="gPpVuo-BLIe6btwiKGSo-31" target="Lpcm2hX8-Bi3e6Y-f05t-41" edge="1">
          <mxGeometry relative="1" as="geometry">
            <mxPoint x="-2880" y="-4530" as="sourcePoint" />
            <mxPoint x="-2720" y="-4530" as="targetPoint" />
          </mxGeometry>
        </mxCell>
        <mxCell id="3ZU64u64tnnPc62G4w3Q-46" value="" style="endArrow=none;html=1;rounded=0;exitX=0.5;exitY=0;exitDx=0;exitDy=0;" parent="1" source="gPpVuo-BLIe6btwiKGSo-27" target="H3t56G8dr6_Rl36FYpE4-5" edge="1">
          <mxGeometry relative="1" as="geometry">
            <mxPoint x="-2880" y="-4530" as="sourcePoint" />
            <mxPoint x="-2720" y="-4530" as="targetPoint" />
          </mxGeometry>
        </mxCell>
        <mxCell id="fjFd11z1YsZii3MbeHKw-2" value="Bus halts" style="ellipse;shape=doubleEllipse;margin=3;whiteSpace=wrap;html=1;align=center;" parent="1" vertex="1">
          <mxGeometry x="-1220" y="-4256.67" width="100" height="40" as="geometry" />
        </mxCell>
        <mxCell id="fjFd11z1YsZii3MbeHKw-3" value="" style="endArrow=none;html=1;rounded=0;fontSize=16;shadow=0;entryX=1;entryY=0.5;entryDx=0;entryDy=0;" parent="1" source="fjFd11z1YsZii3MbeHKw-2" target="g4j1WKEGXEMlScfUfIoM-24" edge="1">
          <mxGeometry relative="1" as="geometry">
            <mxPoint x="-1251" y="-4157" as="sourcePoint" />
            <mxPoint x="-1319" y="-4203" as="targetPoint" />
          </mxGeometry>
        </mxCell>
        <mxCell id="UoYt1BdbGDcRpivnNUzc-1" value="" style="rounded=0;whiteSpace=wrap;html=1;fillColor=none;" vertex="1" parent="1">
          <mxGeometry x="-3920" y="-5570" width="3220" height="1940" as="geometry" />
        </mxCell>
      </root>
    </mxGraphModel>
  </diagram>
</mxfile>
